  0
SECTION
  2
HEADER
  9
$ACADVER
  1
AC1009
  9
$EXTMIN
 10
0.0
 20
0.0
 30
0.0
  9
$EXTMAX
 10
1000.0
 20
1000.0
 30
0.0
  9
$FILLMODE
 70
 0
  9
$SPLFRAME
 70
 1
  0
ENDSEC
  0
SECTION
  2
TABLES
  0
TABLE
  2
LAYER
 70
1
  0
LAYER
  2
0
 70
     0
 62
     7
  6
CONTINUOUS
  0
ENDTAB
  0
ENDSEC
  0
SECTION
  2
ENTITIES
  0
LINE
  8
0
 62
     0
 10
7.21678
 20
2.46255
 30
0.0
 11
7.41796
 21
2.33302
 31
0.0
  0
LINE
  8
0
 62
     0
 10
7.41796
 20
2.33302
 30
0.0
 11
7.52408
 21
2.06017
 31
0.0
  0
LINE
  8
0
 62
     0
 10
7.52408
 20
2.06017
 30
0.0
 11
7.53099
 21
1.49104
 31
0.0
  0
LINE
  8
0
 62
     0
 10
7.53099
 20
1.49104
 30
0.0
 11
7.52821
 21
1.305
 31
0.0
  0
LINE
  8
0
 62
     0
 10
7.52821
 20
1.305
 30
0.0
 11
7.35598
 21
0.880565
 31
0.0
  0
LINE
  8
0
 62
     0
 10
7.35598
 20
0.880565
 30
0.0
 11
6.92602
 21
0.467155
 31
0.0
  0
LINE
  8
0
 62
     0
 10
6.92602
 20
0.467155
 30
0.0
 11
6.36517
 21
0.15434
 31
0.0
  0
LINE
  8
0
 62
     0
 10
6.36517
 20
0.15434
 30
0.0
 11
5.80016
 21
0.0289388
 31
0.0
  0
LINE
  8
0
 62
     0
 10
5.80016
 20
0.0289388
 30
0.0
 11
1.77216
 21
0.0248047
 31
0.0
  0
LINE
  8
0
 62
     0
 10
1.77216
 20
0.0248047
 30
0.0
 11
1.20716
 21
0.14745
 31
0.0
  0
LINE
  8
0
 62
     0
 10
1.20716
 20
0.14745
 30
0.0
 11
0.63941
 21
0.4644
 31
0.0
  0
LINE
  8
0
 62
     0
 10
0.63941
 20
0.4644
 30
0.0
 11
0.201194
 21
0.876434
 31
0.0
  0
LINE
  8
0
 62
     0
 10
0.201194
 20
0.876434
 30
0.0
 11
0.0289388
 21
1.28157
 31
0.0
  0
LINE
  8
0
 62
     0
 10
0.0289388
 20
1.28157
 30
0.0
 11
0.0248047
 21
2.01607
 31
0.0
  0
LINE
  8
0
 62
     0
 10
0.0248047
 20
2.01607
 30
0.0
 11
0.158474
 21
2.33853
 31
0.0
  0
LINE
  8
0
 62
     0
 10
0.158474
 20
2.33853
 30
0.0
 11
0.446486
 21
2.46255
 31
0.0
  0
LINE
  8
0
 62
     0
 10
0.446486
 20
2.46255
 30
0.0
 11
2.43224
 21
2.46669
 31
0.0
  0
LINE
  8
0
 62
     0
 10
2.43224
 20
2.46669
 30
0.0
 11
3.80062
 21
2.46669
 31
0.0
  0
LINE
  8
0
 62
     0
 10
3.80062
 20
2.46669
 30
0.0
 11
5.18418
 21
2.46531
 31
0.0
  0
LINE
  8
0
 62
     0
 10
5.18418
 20
2.46531
 30
0.0
 11
7.21678
 21
2.46255
 31
0.0
  0
LINE
  8
0
 62
     0
 10
6.95494
 20
2.16352
 30
0.0
 11
7.13962
 21
2.06568
 31
0.0
  0
LINE
  8
0
 62
     0
 10
7.13962
 20
2.06568
 30
0.0
 11
7.23745
 21
1.86035
 31
0.0
  0
LINE
  8
0
 62
     0
 10
7.23745
 20
1.86035
 30
0.0
 11
7.24158
 21
1.29122
 31
0.0
  0
LINE
  8
0
 62
     0
 10
7.24158
 20
1.29122
 30
0.0
 11
7.08311
 21
0.971518
 31
0.0
  0
LINE
  8
0
 62
     0
 10
7.08311
 20
0.971518
 30
0.0
 11
6.68623
 21
0.658703
 31
0.0
  0
LINE
  8
0
 62
     0
 10
6.68623
 20
0.658703
 30
0.0
 11
6.16948
 21
0.423058
 31
0.0
  0
LINE
  8
0
 62
     0
 10
6.16948
 20
0.423058
 30
0.0
 11
5.64857
 21
0.327973
 31
0.0
  0
LINE
  8
0
 62
     0
 10
5.64857
 20
0.327973
 30
0.0
 11
1.93201
 21
0.325217
 31
0.0
  0
LINE
  8
0
 62
     0
 10
1.93201
 20
0.325217
 30
0.0
 11
1.41111
 21
0.417544
 31
0.0
  0
LINE
  8
0
 62
     0
 10
1.41111
 20
0.417544
 30
0.0
 11
0.887458
 21
0.657324
 31
0.0
  0
LINE
  8
0
 62
     0
 10
0.887458
 20
0.657324
 30
0.0
 11
0.48369
 21
0.967384
 31
0.0
  0
LINE
  8
0
 62
     0
 10
0.48369
 20
0.967384
 30
0.0
 11
0.325217
 21
1.27331
 31
0.0
  0
LINE
  8
0
 62
     0
 10
0.325217
 20
1.27331
 30
0.0
 11
0.321083
 21
1.82728
 31
0.0
  0
LINE
  8
0
 62
     0
 10
0.321083
 20
1.82728
 30
0.0
 11
0.442352
 21
2.08911
 31
0.0
  0
LINE
  8
0
 62
     0
 10
0.442352
 20
2.08911
 30
0.0
 11
0.70969
 21
2.16352
 31
0.0
  0
LINE
  8
0
 62
     0
 10
0.70969
 20
2.16352
 30
0.0
 11
2.5411
 21
2.16628
 31
0.0
  0
LINE
  8
0
 62
     0
 10
2.5411
 20
2.16628
 30
0.0
 11
3.8034
 21
2.16765
 31
0.0
  0
LINE
  8
0
 62
     0
 10
3.8034
 20
2.16765
 30
0.0
 11
5.07944
 21
2.16628
 31
0.0
  0
LINE
  8
0
 62
     0
 10
5.07944
 20
2.16628
 30
0.0
 11
6.95357
 21
2.16352
 31
0.0
  0
LINE
  8
0
 62
     0
 10
6.95357
 20
2.16352
 30
0.0
 11
6.95494
 21
2.16352
 31
0.0
  0
ENDSEC
  0
EOF
